<svg xmlns="http://www.w3.org/2000/svg" viewBox="0 0 96 96" role="img" aria-label="Blooming blue cat">
  <defs>
    <linearGradient id="catBody" x1="18" y1="12" x2="76" y2="88" gradientUnits="userSpaceOnUse">
      <stop stop-color="#8cc7ff"/>
      <stop offset=".58" stop-color="#5aa6f7"/>
      <stop offset="1" stop-color="#2f78d4"/>
    </linearGradient>
    <linearGradient id="catEar" x1="22" y1="15" x2="76" y2="70" gradientUnits="userSpaceOnUse">
      <stop stop-color="#4e9df4"/>
      <stop offset="1" stop-color="#2f78d4"/>
    </linearGradient>
  </defs>
  <circle cx="48" cy="49" r="40" fill="#eaf5ff"/>
  <path d="M21 42c-2-12 2-25 9-30 6 6 10 12 12 19h12c2-7 6-13 12-19 7 5 11 18 9 30 6 8 8 20 4 30-5 12-17 18-31 18S22 84 17 72c-4-10-2-22 4-30Z" fill="url(#catBody)"/>
  <path d="M29 18c4 4 7 9 8 14-5 1-10 3-14 7-1-8 1-16 6-21Z" fill="url(#catEar)"/>
  <path d="M67 18c-4 4-7 9-8 14 5 1 10 3 14 7 1-8-1-16-6-21Z" fill="url(#catEar)"/>
  <path d="M31 24c2 3 4 6 5 9-4 1-7 2-10 5 0-5 2-10 5-14Z" fill="#c9e7ff" opacity=".72"/>
  <path d="M65 24c-2 3-4 6-5 9 4 1 7 2 10 5 0-5-2-10-5-14Z" fill="#c9e7ff" opacity=".72"/>
  <ellipse cx="35" cy="54" rx="7" ry="9" fill="#0d2342"/>
  <ellipse cx="61" cy="54" rx="7" ry="9" fill="#0d2342"/>
  <circle cx="37" cy="50" r="2.4" fill="#fff"/>
  <circle cx="63" cy="50" r="2.4" fill="#fff"/>
  <path d="M48 60c3 0 5 1.5 5 3.3 0 2-2.2 3.7-5 3.7s-5-1.7-5-3.7c0-1.8 2-3.3 5-3.3Z" fill="#16436e"/>
  <path d="M39 71c3.2 4 14.8 4 18 0" fill="none" stroke="#16436e" stroke-width="3.2" stroke-linecap="round"/>
  <path d="M24 61c-6-1-10-3-14-6M24 67c-6 1-10 2-15 6M72 61c6-1 10-3 14-6M72 67c6 1 10 2 15 6" fill="none" stroke="#2f78d4" stroke-width="3" stroke-linecap="round" opacity=".85"/>
  <path d="M36 78c7 3 17 3 24 0" fill="none" stroke="#bfe2ff" stroke-width="3" stroke-linecap="round" opacity=".75"/>
</svg>
