<svg xmlns="http://www.w3.org/2000/svg" xmlns:xlink="http://www.w3.org/1999/xlink" width="464.0048828125" height="353.113525390625" viewBox="0 0 464.0048828125 353.113525390625" fill="none">
<rect  x="45.0126953125" y="11.51220703125" width="341.77625078323" height="216.497915444" transform="rotate(11.999999380000416 45.0126953125 11.51220703125)" rx="15.154827946831"    fill="#FFFFFF" >
</rect>
<rect  x="45.41796875" y="9.6043701171875" width="341.77625078323" height="216.497915444" transform="rotate(11.999999380000416 45.41796875 9.6043701171875)" rx="15.154827946831"    fill="url(#linear_fill_97B9327F-D77F-45BE-8204-272B59BC96FE_0)" >
</rect>
<rect  x="45.41796875" y="9.6043701171875" width="341.77625078323" height="216.497915444" transform="rotate(11.999999380000416 45.41796875 9.6043701171875)" rx="15.154827946831"    fill="url(#linear_fill_97B9327F-D77F-45BE-8204-272B59BC96FE_1)" >
</rect>
<rect  x="45.41796875" y="9.6043701171875" width="341.77625078323" height="216.497915444" transform="rotate(11.999999380000416 45.41796875 9.6043701171875)" rx="15.154827946831"    fill="url(#linear_fill_97B9327F-D77F-45BE-8204-272B59BC96FE_2)" >
</rect>
<path d="M192.911 212.151C192.19 212.555 191.748 213.151 191.578 213.953C191.464 214.487 191.49 214.978 191.648 215.399C191.818 215.838 192.132 216.225 192.621 216.546L192.615 216.576C192.083 216.602 191.608 216.811 191.154 217.195C190.632 217.612 190.316 218.155 190.178 218.808C189.976 219.757 190.155 220.585 190.726 221.327C191.285 222.05 192.2 222.55 193.475 222.821C194.735 223.089 195.775 223.005 196.595 222.574C197.403 222.126 197.918 221.445 198.12 220.496C198.259 219.843 198.177 219.215 197.884 218.626C197.626 218.09 197.262 217.703 196.801 217.465L196.808 217.436C197.371 217.339 197.824 217.115 198.173 216.786C198.489 216.465 198.702 216.025 198.816 215.491C198.986 214.69 198.81 213.962 198.33 213.302C197.778 212.549 196.941 212.056 195.814 211.817C194.673 211.574 193.708 211.684 192.911 212.151ZM193.917 213.387C193.528 213.614 193.291 213.929 193.2 214.359C193.096 214.849 193.146 215.27 193.353 215.608C193.607 216.019 194.086 216.306 194.828 216.464C195.554 216.618 196.124 216.554 196.522 216.282C196.849 216.057 197.067 215.693 197.171 215.203C197.262 214.773 197.174 214.389 196.91 214.023C196.598 213.6 196.145 213.329 195.522 213.197C194.899 213.064 194.36 213.125 193.917 213.387ZM191.898 219.17C192.017 218.606 192.296 218.19 192.754 217.931C193.215 217.657 193.81 217.593 194.551 217.751C195.292 217.908 195.825 218.206 196.146 218.662C196.432 219.064 196.527 219.565 196.407 220.129C196.293 220.663 196.007 221.042 195.567 221.289C195.083 221.527 194.481 221.58 193.769 221.428C193.043 221.274 192.536 220.996 192.22 220.588C191.889 220.177 191.784 219.704 191.898 219.17Z" fill-rule="evenodd"  fill="#262933" >
</path>
<path d="M201.275 213.928C200.554 214.333 200.112 214.929 199.941 215.73C199.828 216.264 199.854 216.755 200.012 217.176C200.182 217.616 200.495 218.003 200.985 218.324L200.979 218.353C200.446 218.379 199.971 218.589 199.518 218.973C198.996 219.389 198.68 219.932 198.541 220.585C198.34 221.535 198.519 222.363 199.09 223.104C199.649 223.828 200.564 224.327 201.839 224.598C203.099 224.866 204.139 224.782 204.959 224.352C205.767 223.903 206.282 223.223 206.484 222.273C206.623 221.621 206.541 220.993 206.248 220.403C205.99 219.868 205.626 219.48 205.165 219.243L205.171 219.214C205.734 219.116 206.188 218.892 206.536 218.563C206.852 218.243 207.066 217.803 207.18 217.269C207.35 216.467 207.174 215.74 206.694 215.08C206.142 214.327 205.305 213.834 204.178 213.594C203.037 213.352 202.072 213.462 201.275 213.928ZM202.281 215.165C201.892 215.392 201.655 215.706 201.563 216.137C201.459 216.626 201.51 217.047 201.717 217.386C201.971 217.796 202.45 218.083 203.191 218.241C203.918 218.395 204.488 218.331 204.886 218.059C205.213 217.834 205.431 217.47 205.535 216.981C205.626 216.55 205.537 216.167 205.274 215.801C204.961 215.378 204.508 215.106 203.886 214.974C203.263 214.842 202.724 214.902 202.281 215.165ZM200.261 220.947C200.381 220.384 200.66 219.968 201.118 219.708C201.579 219.434 202.173 219.371 202.915 219.528C203.656 219.686 204.188 219.984 204.51 220.44C204.796 220.842 204.891 221.342 204.771 221.906C204.657 222.44 204.371 222.819 203.931 223.067C203.447 223.305 202.844 223.357 202.133 223.206C201.406 223.052 200.9 222.774 200.584 222.365C200.253 221.954 200.148 221.482 200.261 220.947Z" fill-rule="evenodd"  fill="#262933" >
</path>
<path d="M213.947 214.244L205.887 226.796L207.354 227.108L215.399 214.553L213.947 214.244Z"   fill="#262933" >
</path>
<path d="M216.523 217.169C215.802 217.574 215.359 218.17 215.189 218.971C215.076 219.505 215.102 219.996 215.26 220.418C215.43 220.857 215.743 221.244 216.233 221.565L216.226 221.594C215.694 221.621 215.219 221.83 214.766 222.214C214.243 222.63 213.928 223.174 213.789 223.826C213.587 224.776 213.767 225.604 214.337 226.345C214.896 227.069 215.812 227.569 217.087 227.84C218.347 228.108 219.387 228.023 220.206 227.593C221.014 227.144 221.53 226.464 221.732 225.515C221.87 224.862 221.788 224.234 221.495 223.645C221.237 223.109 220.874 222.722 220.413 222.484L220.419 222.455C220.982 222.357 221.435 222.133 221.784 221.804C222.1 221.484 222.314 221.044 222.427 220.51C222.598 219.709 222.421 218.981 221.942 218.321C221.389 217.568 220.552 217.075 219.426 216.836C218.284 216.593 217.319 216.703 216.523 217.169ZM217.529 218.406C217.14 218.633 216.903 218.948 216.811 219.378C216.707 219.867 216.758 220.288 216.965 220.627C217.218 221.038 217.698 221.325 218.439 221.482C219.165 221.637 219.735 221.573 220.134 221.301C220.461 221.076 220.678 220.712 220.782 220.222C220.874 219.792 220.785 219.408 220.522 219.042C220.209 218.619 219.756 218.348 219.134 218.215C218.511 218.083 217.972 218.143 217.529 218.406ZM215.509 224.189C215.629 223.625 215.908 223.209 216.366 222.95C216.827 222.676 217.421 222.612 218.162 222.769C218.903 222.927 219.436 223.225 219.758 223.681C220.044 224.083 220.138 224.584 220.018 225.147C219.905 225.681 219.619 226.06 219.179 226.308C218.694 226.546 218.092 226.598 217.381 226.447C216.654 226.293 216.147 226.015 215.831 225.607C215.501 225.195 215.396 224.723 215.509 224.189Z" fill-rule="evenodd"  fill="#262933" >
</path>
<path d="M224.888 218.947C224.166 219.352 223.724 219.948 223.554 220.749C223.44 221.283 223.466 221.774 223.625 222.195C223.795 222.635 224.108 223.021 224.597 223.343L224.591 223.372C224.059 223.398 223.584 223.608 223.13 223.992C222.608 224.408 222.293 224.951 222.154 225.604C221.952 226.553 222.131 227.382 222.702 228.123C223.261 228.847 224.177 229.346 225.451 229.617C226.711 229.885 227.751 229.801 228.571 229.37C229.379 228.922 229.895 228.242 230.096 227.292C230.235 226.639 230.153 226.012 229.86 225.422C229.602 224.887 229.238 224.499 228.778 224.262L228.784 224.232C229.347 224.135 229.8 223.911 230.149 223.582C230.465 223.262 230.679 222.822 230.792 222.288C230.962 221.486 230.786 220.759 230.307 220.099C229.754 219.346 228.917 218.853 227.79 218.613C226.649 218.371 225.684 218.48 224.888 218.947ZM225.893 220.183C225.504 220.411 225.267 220.725 225.176 221.155C225.072 221.645 225.122 222.066 225.329 222.405C225.583 222.815 226.063 223.102 226.804 223.26C227.53 223.414 228.1 223.35 228.499 223.078C228.825 222.853 229.043 222.489 229.147 222C229.238 221.569 229.15 221.186 228.887 220.82C228.574 220.397 228.121 220.125 227.498 219.993C226.876 219.861 226.337 219.921 225.893 220.183ZM223.874 225.966C223.994 225.403 224.272 224.987 224.73 224.727C225.191 224.453 225.786 224.389 226.527 224.547C227.268 224.705 227.801 225.003 228.122 225.459C228.409 225.861 228.503 226.361 228.383 226.925C228.27 227.459 227.983 227.838 227.543 228.086C227.059 228.324 226.457 228.376 225.745 228.225C225.019 228.07 224.512 227.793 224.196 227.384C223.865 226.973 223.76 226.501 223.874 225.966Z" fill-rule="evenodd"  fill="#262933" >
</path>
<rect x="41.28125" y="29.06640625" width="341.77625078323" height="49.2682211444013" transform="rotate(11.999999380000416 41.28125 29.06640625)"   fill="#232323" >
</rect>
<path d="M276.904 230.003C276.183 230.408 275.741 231.004 275.57 231.805C275.457 232.34 275.483 232.831 275.641 233.252C275.811 233.691 276.124 234.078 276.614 234.399L276.608 234.428C276.075 234.455 275.6 234.664 275.147 235.048C274.625 235.464 274.309 236.008 274.17 236.661C273.969 237.61 274.148 238.438 274.719 239.18C275.278 239.903 276.193 240.403 277.468 240.674C278.728 240.942 279.768 240.858 280.588 240.427C281.396 239.979 281.911 239.298 282.113 238.349C282.252 237.696 282.17 237.068 281.877 236.479C281.619 235.943 281.255 235.556 280.794 235.318L280.8 235.289C281.363 235.192 281.817 234.968 282.165 234.639C282.482 234.318 282.695 233.878 282.809 233.344C282.979 232.543 282.803 231.815 282.323 231.155C281.771 230.402 280.934 229.909 279.807 229.67C278.666 229.427 277.701 229.537 276.904 230.003ZM277.91 231.24C277.521 231.467 277.284 231.782 277.192 232.212C277.088 232.702 277.139 233.123 277.346 233.461C277.6 233.872 278.079 234.159 278.82 234.316C279.547 234.471 280.116 234.407 280.515 234.135C280.842 233.91 281.06 233.546 281.164 233.056C281.255 232.626 281.166 232.242 280.903 231.876C280.59 231.453 280.137 231.182 279.515 231.049C278.892 230.917 278.353 230.978 277.91 231.24ZM275.89 237.023C276.01 236.459 276.289 236.043 276.747 235.784C277.208 235.51 277.802 235.446 278.544 235.604C279.285 235.761 279.817 236.059 280.139 236.515C280.425 236.917 280.52 237.418 280.4 237.981C280.286 238.516 280 238.895 279.56 239.142C279.076 239.38 278.473 239.433 277.762 239.281C277.035 239.127 276.529 238.849 276.213 238.441C275.882 238.029 275.777 237.557 275.89 237.023Z" fill-rule="evenodd"  fill="#262933" >
</path>
<path d="M285.27 231.782C284.548 232.187 284.106 232.783 283.936 233.584C283.822 234.118 283.848 234.609 284.007 235.03C284.177 235.47 284.49 235.856 284.979 236.178L284.973 236.207C284.441 236.233 283.966 236.442 283.512 236.827C282.99 237.243 282.675 237.786 282.536 238.439C282.334 239.388 282.513 240.216 283.084 240.958C283.643 241.681 284.559 242.181 285.833 242.452C287.094 242.72 288.133 242.636 288.953 242.205C289.761 241.757 290.277 241.077 290.478 240.127C290.617 239.474 290.535 238.847 290.242 238.257C289.984 237.722 289.62 237.334 289.16 237.097L289.166 237.067C289.729 236.97 290.182 236.746 290.531 236.417C290.847 236.097 291.061 235.657 291.174 235.122C291.344 234.321 291.168 233.594 290.689 232.934C290.136 232.18 289.299 231.688 288.172 231.448C287.031 231.205 286.066 231.315 285.27 231.782ZM286.276 233.018C285.886 233.246 285.649 233.56 285.558 233.99C285.454 234.48 285.504 234.901 285.711 235.24C285.965 235.65 286.445 235.937 287.186 236.095C287.912 236.249 288.482 236.185 288.881 235.913C289.207 235.688 289.425 235.324 289.529 234.835C289.62 234.404 289.532 234.021 289.269 233.655C288.956 233.231 288.503 232.96 287.88 232.828C287.258 232.696 286.719 232.756 286.276 233.018ZM284.256 238.801C284.376 238.238 284.654 237.822 285.112 237.562C285.573 237.288 286.168 237.224 286.909 237.382C287.65 237.54 288.183 237.838 288.504 238.294C288.791 238.696 288.885 239.196 288.765 239.76C288.652 240.294 288.366 240.673 287.926 240.921C287.441 241.159 286.839 241.211 286.127 241.06C285.401 240.905 284.894 240.628 284.578 240.219C284.247 239.808 284.142 239.335 284.256 238.801Z" fill-rule="evenodd"  fill="#262933" >
</path>
<path d="M293.633 233.56C292.912 233.964 292.47 234.56 292.3 235.362C292.186 235.896 292.212 236.387 292.371 236.808C292.541 237.247 292.854 237.634 293.343 237.955L293.337 237.985C292.805 238.011 292.33 238.22 291.876 238.604C291.354 239.021 291.038 239.564 290.9 240.217C290.698 241.166 290.877 241.994 291.448 242.736C292.007 243.459 292.922 243.959 294.197 244.23C295.457 244.498 296.497 244.414 297.317 243.983C298.125 243.535 298.64 242.854 298.842 241.905C298.981 241.252 298.899 240.624 298.606 240.035C298.348 239.499 297.984 239.112 297.523 238.874L297.53 238.845C298.093 238.748 298.546 238.524 298.895 238.195C299.211 237.874 299.424 237.434 299.538 236.9C299.708 236.099 299.532 235.371 299.052 234.711C298.5 233.958 297.663 233.465 296.536 233.226C295.395 232.983 294.43 233.093 293.633 233.56ZM294.639 234.796C294.25 235.023 294.013 235.338 293.922 235.768C293.817 236.258 293.868 236.679 294.075 237.017C294.329 237.428 294.808 237.715 295.55 237.873C296.276 238.027 296.846 237.963 297.244 237.691C297.571 237.466 297.789 237.102 297.893 236.612C297.984 236.182 297.895 235.798 297.632 235.432C297.32 235.009 296.867 234.738 296.244 234.606C295.621 234.473 295.082 234.534 294.639 234.796ZM292.62 240.579C292.74 240.015 293.018 239.599 293.476 239.34C293.937 239.066 294.532 239.002 295.273 239.16C296.014 239.317 296.547 239.615 296.868 240.071C297.155 240.473 297.249 240.974 297.129 241.538C297.015 242.072 296.729 242.451 296.289 242.698C295.805 242.936 295.203 242.989 294.491 242.837C293.765 242.683 293.258 242.405 292.942 241.997C292.611 241.586 292.506 241.113 292.62 240.579Z" fill-rule="evenodd"  fill="#262933" >
</path>
<path d="M196.007 189.312L197.142 197.856L198.71 198.19L203.222 190.845L201.81 190.545L198.255 196.558L198.221 196.551L197.419 189.612L196.007 189.312Z"   fill="#262933" >
</path>
<path d="M202.681 194.719C202.938 194.111 203.353 193.713 203.915 193.53C204.394 193.353 204.996 193.351 205.729 193.507C206.574 193.686 207.162 194.034 207.472 194.542C207.75 194.984 207.809 195.557 207.66 196.258L206.88 199.926L205.706 199.677L205.866 198.923C205.582 199.165 205.261 199.317 204.905 199.404C204.503 199.493 204.051 199.488 203.55 199.382C202.95 199.254 202.52 198.996 202.239 198.623C201.95 198.236 201.849 197.813 201.951 197.335C202.088 196.689 202.437 196.234 203.022 195.998C203.56 195.764 204.251 195.73 205.101 195.888L206.371 196.117L206.416 195.902C206.577 195.145 206.246 194.69 205.423 194.515C205.067 194.439 204.772 194.431 204.533 194.52C204.257 194.612 204.042 194.797 203.912 195.083L202.681 194.719ZM203.261 197.568C203.408 196.878 203.99 196.621 205.006 196.814L206.176 197.032L206.114 197.326C206.019 197.771 205.767 198.095 205.372 198.313C204.98 198.52 204.53 198.573 204.041 198.47C203.763 198.41 203.559 198.292 203.41 198.121C203.26 197.949 203.219 197.768 203.261 197.568Z" fill-rule="evenodd"  fill="#262933" >
</path>
<path d="M209.654 192.05L207.933 200.15L209.2 200.419L210.922 192.319L209.654 192.05Z"   fill="#262933" >
</path>
<path d="M211.793 193.373C211.845 193.129 211.965 192.949 212.164 192.829C212.364 192.708 212.586 192.673 212.831 192.725C213.075 192.777 213.263 192.899 213.397 193.091C213.519 193.28 213.567 193.495 213.515 193.739C213.463 193.984 213.329 194.181 213.129 194.302C212.929 194.422 212.718 194.459 212.473 194.407C212.228 194.355 212.04 194.233 211.907 194.042C211.775 193.839 211.741 193.618 211.793 193.373ZM211.742 200.959L210.471 200.689L211.693 194.937L212.965 195.207L211.742 200.959Z" fill-rule="evenodd"  fill="#262933" >
</path>
<path d="M216.544 195.804C217.211 195.946 217.711 196.381 218.054 197.117L218.722 193.977L219.993 194.247L218.272 202.346L217.088 202.095L217.217 201.488C216.708 201.915 216.08 202.044 215.324 201.883C214.468 201.701 213.86 201.26 213.51 200.557C213.183 199.906 213.117 199.133 213.304 198.254C213.484 197.408 213.843 196.752 214.406 196.29C215.001 195.789 215.721 195.629 216.544 195.804ZM214.605 198.528C214.738 197.905 214.945 197.465 215.247 197.192C215.594 196.871 216.051 196.77 216.629 196.893C217.03 196.978 217.335 197.216 217.531 197.606C217.744 198.024 217.801 198.547 217.671 199.159L217.652 199.247C217.534 199.804 217.306 200.243 216.997 200.55C216.648 200.882 216.215 201.007 215.726 200.903C215.159 200.782 214.793 200.489 214.622 200.035C214.471 199.653 214.473 199.151 214.605 198.528Z" fill-rule="evenodd"  fill="#262933" >
</path>
<path d="M223.698 195.198L223.462 196.31L226.063 196.863L224.611 203.695L225.912 203.972L227.364 197.14L229.966 197.693L230.202 196.58L223.698 195.198Z"   fill="#262933" >
</path>
<path d="M230.672 196.517L228.95 204.617L230.218 204.887L230.901 201.671C231.005 201.182 231.199 200.816 231.499 200.554C231.787 200.29 232.132 200.2 232.532 200.285C232.966 200.377 233.26 200.579 233.423 200.905C233.557 201.201 233.577 201.6 233.473 202.09L232.764 205.428L234.031 205.697L234.788 202.137C234.951 201.369 234.907 200.755 234.668 200.297C234.41 199.812 233.93 199.501 233.23 199.352C232.863 199.274 232.526 199.272 232.218 199.358C231.873 199.447 231.557 199.624 231.277 199.902L231.939 196.786L230.672 196.517Z"   fill="#262933" >
</path>
<path d="M238.936 200.565C238.581 200.489 238.259 200.525 237.958 200.683C237.714 200.793 237.489 200.978 237.272 201.234L237.447 200.411L236.191 200.144L234.968 205.896L236.224 206.163L236.872 203.115C236.976 202.625 237.203 202.266 237.579 202.032C237.902 201.822 238.228 201.763 238.562 201.834C238.829 201.891 239.089 201.981 239.359 202.131L239.628 200.863C239.449 200.72 239.214 200.624 238.936 200.565Z"   fill="#262933" >
</path>
<path d="M239.951 200.943L239.19 204.526C238.861 206.073 239.385 206.998 240.763 207.291C241.475 207.442 242.139 207.27 242.756 206.773L242.597 207.518L243.865 207.788L245.088 202.035L243.82 201.766L243.073 205.282C242.874 205.67 242.617 205.952 242.309 206.143C242.003 206.322 241.711 206.388 241.433 206.329C240.988 206.234 240.7 206.057 240.545 205.803C240.392 205.538 240.374 205.185 240.474 204.718L241.219 201.213L239.951 200.943Z"   fill="#262933" >
</path>
<path d="M285.413 208.153C284.145 207.883 283.091 208.089 282.244 208.793C281.499 209.402 281.004 210.309 280.753 211.488C280.498 212.69 280.572 213.706 280.988 214.539C281.458 215.499 282.357 216.132 283.68 216.413C284.536 216.595 285.322 216.507 286.038 216.147C286.805 215.763 287.37 215.128 287.746 214.231L286.479 213.961C286.196 214.529 285.832 214.929 285.39 215.149C284.977 215.34 284.48 215.386 283.913 215.265C283.046 215.081 282.46 214.665 282.162 214.044C281.89 213.463 281.855 212.7 282.054 211.765C282.248 210.852 282.588 210.181 283.086 209.751C283.631 209.263 284.313 209.117 285.147 209.294C285.703 209.412 286.135 209.62 286.439 209.941C286.754 210.264 286.918 210.694 286.94 211.245L288.208 211.515C288.256 210.687 288.048 209.969 287.569 209.379C287.073 208.761 286.347 208.351 285.413 208.153Z"   fill="#262933" >
</path>
<path d="M288.952 209.068L290.087 217.612L291.655 217.946L296.168 210.601L294.756 210.301L291.2 216.314L291.167 216.307L290.364 209.368L288.952 209.068Z"   fill="#262933" >
</path>
<path d="M295.881 210.541L297.016 219.085L298.584 219.419L303.096 212.074L301.684 211.774L298.129 217.787L298.095 217.78L297.293 210.841L295.881 210.541Z"   fill="#262933" >
</path>
<path d="M26.0827 198.556C25.26 198.381 24.544 198.415 23.9457 198.66C23.2761 198.913 22.8711 199.397 22.7245 200.087C22.5826 200.754 22.774 201.33 23.3098 201.816C23.5371 202.004 24.1013 202.356 24.9959 202.849C25.8309 203.294 26.3577 203.604 26.5517 203.784C27.0151 204.174 27.1992 204.62 27.0927 205.12C27.0029 205.543 26.7318 205.835 26.2795 205.994C25.8273 206.154 25.2676 206.163 24.6228 206.026C23.9112 205.875 23.4107 205.605 23.1053 205.238C22.7736 204.83 22.6378 204.267 22.7067 203.56L21.8061 203.369C21.6647 204.362 21.8556 205.159 22.3765 205.769C22.825 206.283 23.5162 206.64 24.4501 206.838C25.3951 207.039 26.1826 206.997 26.8212 206.726C27.4623 206.443 27.8585 205.946 28.0051 205.256C28.1588 204.533 27.9436 203.906 27.3728 203.366C27.0818 203.095 26.4469 202.692 25.468 202.158C24.7482 201.773 24.2945 201.502 24.118 201.348C23.7142 201.007 23.5605 200.637 23.6456 200.236C23.7426 199.78 24.0025 199.486 24.4278 199.344C24.804 199.215 25.2787 199.223 25.8679 199.348C26.5128 199.485 26.9847 199.725 27.279 200.09C27.5645 200.441 27.697 200.911 27.674 201.511L28.5746 201.702C28.6741 200.851 28.5088 200.153 28.065 199.617C27.6411 199.097 26.9721 198.745 26.0827 198.556Z"   fill="#262933" >
</path>
<path d="M28.8875 204.602C29.0672 203.757 29.4527 203.097 30.0625 202.634C30.6794 202.137 31.3958 201.977 32.2296 202.154C33.1524 202.35 33.7888 202.815 34.1233 203.538C34.4275 204.184 34.48 205.021 34.2894 206.027L29.7508 205.062C29.6581 205.717 29.7253 206.249 29.9609 206.671C30.1965 207.093 30.5929 207.367 31.1377 207.483C31.6047 207.582 32.0203 207.537 32.3591 207.365C32.6462 207.216 32.8978 206.957 33.1275 206.587L34.0176 206.777C33.7659 207.305 33.4109 207.697 32.9461 207.97C32.3781 208.291 31.7246 208.385 30.9797 208.227C30.157 208.052 29.5423 207.631 29.1666 206.993C28.7735 206.328 28.6888 205.537 28.8875 204.602ZM29.9231 204.375C30.0993 203.819 30.3755 203.409 30.7578 203.142C31.14 202.874 31.5849 202.796 32.0963 202.905C33.1858 203.136 33.6642 203.879 33.5129 205.138L29.9231 204.375Z" fill-rule="evenodd"  fill="#262933" >
</path>
<path d="M38.5579 203.499C38.1577 203.414 37.787 203.463 37.4348 203.644C37.15 203.781 36.8931 204.005 36.6665 204.306L36.8794 203.305L36.0011 203.118L34.7783 208.871L35.6566 209.057L36.3047 206.009C36.4182 205.474 36.6597 205.049 37.0514 204.737C37.4367 204.4 37.8549 204.291 38.2996 204.386C38.5776 204.445 38.8595 204.54 39.1297 204.69L39.3189 203.8C39.1266 203.666 38.8692 203.565 38.5579 203.499Z"   fill="#262933" >
</path>
<path d="M39.4248 203.846L40.37 210.059L41.2706 210.251L44.6724 204.961L43.694 204.753L41.0624 209.043L40.4032 204.054L39.4248 203.846Z"   fill="#262933" >
</path>
<path d="M45.8061 203.619C45.8487 203.419 45.9347 203.272 46.0918 203.189C46.2536 203.084 46.4216 203.065 46.6106 203.105C46.7996 203.146 46.9453 203.231 47.0504 203.393C47.1601 203.533 47.1985 203.706 47.156 203.906C47.1158 204.095 47.0105 204.237 46.8487 204.342C46.6893 204.436 46.5189 204.466 46.3299 204.426C46.1409 204.386 45.9975 204.289 45.8901 204.138C45.7851 203.976 45.7659 203.809 45.8061 203.619ZM45.375 211.122L44.4848 210.933L45.7074 205.181L46.5975 205.37L45.375 211.122Z" fill-rule="evenodd"  fill="#262933" >
</path>
<path d="M50.7758 206.096C49.9198 205.914 49.1777 206.07 48.5585 206.578C47.9844 207.038 47.6107 207.702 47.4238 208.581C47.237 209.46 47.308 210.22 47.6479 210.862C48.003 211.542 48.6086 211.973 49.4758 212.158C50.1873 212.309 50.7945 212.24 51.3061 211.965C51.8313 211.681 52.2298 211.173 52.5193 210.467L51.6299 210.278C51.286 211.24 50.6126 211.62 49.6342 211.412C49.0561 211.289 48.6563 210.983 48.4413 210.519C48.2151 210.052 48.1889 209.465 48.3378 208.764C48.4868 208.063 48.7607 207.54 49.1596 207.194C49.5718 206.84 50.0615 206.723 50.6174 206.841C51.0732 206.938 51.4188 207.116 51.6606 207.4C51.8912 207.682 51.9981 208.054 51.9814 208.515L52.8597 208.702C52.9086 207.98 52.7529 207.4 52.3815 206.96C52.0189 206.535 51.4874 206.247 50.7758 206.096Z"   fill="#262933" >
</path>
<path d="M53.4019 209.813C53.5817 208.968 53.9671 208.308 54.5769 207.845C55.1938 207.348 55.9102 207.187 56.7441 207.365C57.6668 207.561 58.3032 208.026 58.6377 208.749C58.9419 209.395 58.9945 210.231 58.8039 211.238L54.2652 210.273C54.1725 210.928 54.2397 211.459 54.4753 211.882C54.711 212.304 55.1074 212.578 55.6521 212.694C56.1191 212.793 56.5348 212.748 56.8735 212.575C57.1607 212.427 57.4122 212.168 57.6419 211.798L58.532 211.987C58.2803 212.515 57.9253 212.907 57.4605 213.181C56.8926 213.502 56.239 213.596 55.4941 213.438C54.6714 213.263 54.0567 212.842 53.6811 212.204C53.2879 211.539 53.2033 210.748 53.4019 209.813ZM54.4375 209.586C54.6138 209.03 54.89 208.62 55.2722 208.352C55.6545 208.085 56.0993 208.007 56.6107 208.116C57.7003 208.347 58.1787 209.09 58.0273 210.349L54.4375 209.586Z" fill-rule="evenodd"  fill="#262933" >
</path>
<path d="M64.7949 206.947L63.7543 211.843C63.5343 212.878 63.6333 213.725 64.0487 214.394C64.4664 215.053 65.1966 215.499 66.2417 215.721C67.2868 215.943 68.1353 215.833 68.7983 215.392C69.4367 214.958 69.8715 214.225 70.0914 213.19L71.132 208.294L70.2204 208.101L69.1774 213.007C69.0118 213.786 68.7086 214.338 68.2788 214.666C67.8133 214.997 67.1902 215.085 66.412 214.92C65.6226 214.752 65.0895 214.418 64.8101 213.928C64.5395 213.452 64.498 212.827 64.6636 212.048L65.7066 207.141L64.7949 206.947Z"   fill="#262933" >
</path>
<path d="M71.9547 216.771L71.045 216.577L72.7333 208.635L76.1568 209.363C76.9462 209.53 77.5308 209.843 77.9086 210.307C78.2952 210.785 78.4253 211.388 78.2692 212.122C78.1746 212.567 77.9639 212.934 77.646 213.227C77.3035 213.526 76.9039 213.668 76.4245 213.683L76.4182 213.712C77.1387 214.04 77.4634 214.61 77.3821 215.43L77.2396 216.678C77.18 217.177 77.2408 217.592 77.4128 217.931L76.4249 217.721C76.3037 217.416 76.2654 217.048 76.3266 216.596L76.4533 215.519C76.5082 215.042 76.4151 214.667 76.1686 214.405C75.9444 214.148 75.5869 213.975 75.0866 213.868L72.6803 213.357L71.9547 216.771ZM75.2579 213.074L72.8517 212.563L73.4775 209.619L75.8838 210.13C76.4952 210.26 76.9176 210.482 77.1546 210.789C77.3717 211.079 77.4387 211.472 77.3346 211.962C77.2353 212.429 77.0177 212.751 76.6853 212.948C76.3173 213.149 75.8361 213.197 75.2579 213.074Z" fill-rule="evenodd"  fill="#262933" >
</path>
<path d="M80.249 210.232L78.5604 218.177L84.0525 219.344L84.2205 218.554L79.6288 217.578L81.1496 210.424L80.249 210.232Z"   fill="#262933" >
</path>
<path d="M86.0947 214.82C86.1349 214.631 86.2304 214.488 86.3922 214.383C86.5429 214.275 86.7129 214.246 86.9131 214.289C87.091 214.327 87.2457 214.424 87.3508 214.586C87.4558 214.748 87.4945 214.92 87.4543 215.109C87.4141 215.298 87.3067 215.449 87.1449 215.555C86.9855 215.649 86.8019 215.686 86.6241 215.648C86.424 215.606 86.2826 215.499 86.1864 215.351C86.0813 215.189 86.0545 215.009 86.0947 214.82ZM85.2295 218.893C85.2697 218.703 85.3652 218.56 85.527 218.455C85.6777 218.347 85.8477 218.319 86.0479 218.361C86.2257 218.399 86.3805 218.497 86.4856 218.659C86.5906 218.821 86.6293 218.992 86.5891 219.182C86.5489 219.371 86.4415 219.522 86.2797 219.627C86.1203 219.721 85.9367 219.759 85.7589 219.721C85.5587 219.678 85.4174 219.572 85.3212 219.423C85.2161 219.261 85.1893 219.082 85.2295 218.893Z" fill-rule="evenodd"  fill="#262933" >
</path>
<path d="M88.5098 214.279L89.2438 220.448L90.0776 220.625L92.4178 216.285L92.7681 221.197L93.613 221.376L96.7925 216.04L95.8141 215.832L93.4112 220.194L93.068 215.248L92.2342 215.071L89.9091 219.449L89.4881 214.487L88.5098 214.279Z"   fill="#262933" >
</path>
<path d="M96.9043 216.063L97.6383 222.232L98.4721 222.409L100.812 218.069L101.163 222.981L102.008 223.161L105.187 217.824L104.209 217.616L101.806 221.978L101.463 217.032L100.629 216.855L98.3036 221.234L97.8827 216.271L96.9043 216.063Z"   fill="#262933" >
</path>
<path d="M105.298 217.848L106.032 224.016L106.866 224.193L109.206 219.853L109.556 224.765L110.401 224.945L113.581 219.608L112.602 219.4L110.199 223.762L109.856 218.817L109.022 218.639L106.697 223.018L106.276 218.056L105.298 217.848Z"   fill="#262933" >
</path>
<path d="M114.163 224.36C113.962 224.318 113.793 224.351 113.642 224.459C113.48 224.564 113.38 224.706 113.338 224.906C113.298 225.095 113.331 225.265 113.436 225.427C113.53 225.587 113.672 225.686 113.872 225.729C114.05 225.767 114.23 225.735 114.392 225.63C114.554 225.525 114.654 225.383 114.694 225.194C114.737 224.994 114.703 224.824 114.598 224.662C114.493 224.5 114.34 224.398 114.163 224.36Z"   fill="#262933" >
</path>
<path d="M119.818 220.771C119.417 220.686 119.047 220.735 118.695 220.916C118.41 221.053 118.153 221.278 117.926 221.578L118.139 220.577L117.261 220.39L116.038 226.143L116.916 226.33L117.564 223.281C117.678 222.747 117.919 222.321 118.311 222.009C118.696 221.672 119.115 221.564 119.559 221.658C119.837 221.717 120.119 221.812 120.389 221.962L120.579 221.072C120.386 220.938 120.129 220.837 119.818 220.771Z"   fill="#262933" >
</path>
<path d="M120.483 224.092C120.667 223.224 121.064 222.559 121.674 222.096C122.313 221.604 123.05 221.458 123.917 221.642C124.773 221.824 125.408 222.262 125.792 222.971C126.16 223.643 126.252 224.411 126.068 225.279C125.886 226.136 125.489 226.793 124.893 227.248C124.242 227.738 123.484 227.889 122.628 227.707C121.761 227.523 121.149 227.08 120.765 226.37C120.394 225.71 120.3 224.949 120.483 224.092ZM121.396 224.278C121.533 223.633 121.791 223.148 122.192 222.791C122.625 222.395 123.149 222.258 123.76 222.388C124.36 222.516 124.792 222.855 125.048 223.398C125.259 223.885 125.299 224.433 125.161 225.078C125.029 225.701 124.765 226.208 124.375 226.567C123.92 226.959 123.387 227.094 122.787 226.966C122.176 226.836 121.753 226.498 121.518 225.96C121.297 225.471 121.261 224.912 121.396 224.278Z" fill-rule="evenodd"  fill="#262933" >
</path>
<path d="M126.998 225.477C127.183 224.609 127.579 223.944 128.189 223.481C128.828 222.989 129.565 222.843 130.432 223.027C131.288 223.209 131.923 223.647 132.307 224.356C132.676 225.028 132.768 225.796 132.583 226.664C132.401 227.521 132.005 228.178 131.408 228.633C130.758 229.123 129.999 229.274 129.143 229.092C128.276 228.908 127.664 228.465 127.281 227.755C126.91 227.095 126.816 226.334 126.998 225.477ZM127.911 225.663C128.048 225.018 128.307 224.533 128.708 224.176C129.141 223.78 129.664 223.643 130.276 223.773C130.876 223.901 131.307 224.24 131.564 224.783C131.774 225.27 131.814 225.818 131.677 226.464C131.545 227.087 131.28 227.593 130.89 227.952C130.435 228.344 129.903 228.479 129.303 228.351C128.691 228.221 128.268 227.884 128.034 227.345C127.813 226.856 127.776 226.297 127.911 225.663Z" fill-rule="evenodd"  fill="#262933" >
</path>
<path d="M133.542 226.725C133.722 225.879 134.085 225.241 134.665 224.807C135.253 224.338 135.951 224.201 136.751 224.371C137.619 224.555 138.186 225.069 138.445 225.927L138.655 224.939L139.545 225.128L138.408 230.479C138.018 232.315 136.936 233.049 135.19 232.678C134.412 232.512 133.844 232.226 133.51 231.83C133.165 231.431 133.012 230.913 133.044 230.269L133.934 230.458C133.918 230.862 134.023 231.19 134.24 231.423C134.456 231.666 134.822 231.843 135.344 231.954C136.5 232.2 137.221 231.685 137.491 230.417L137.707 229.399C137.121 230.077 136.392 230.326 135.525 230.142C134.724 229.972 134.143 229.559 133.792 228.915C133.439 228.281 133.365 227.559 133.542 226.725ZM134.454 226.919C134.591 226.274 134.86 225.786 135.252 225.474C135.664 225.119 136.147 225.01 136.725 225.132C137.292 225.253 137.698 225.552 137.942 226.045C138.173 226.49 138.22 227.045 138.083 227.691C137.95 228.314 137.683 228.794 137.289 229.117C136.87 229.446 136.38 229.547 135.802 229.424C135.18 229.292 134.772 228.973 134.551 228.484C134.353 228.046 134.326 227.52 134.454 226.919Z" fill-rule="evenodd"  fill="#262933" >
</path>
<path d="M140.082 228.258C140.267 227.39 140.664 226.726 141.273 226.262C141.913 225.77 142.65 225.624 143.517 225.809C144.373 225.991 145.008 226.428 145.391 227.138C145.76 227.809 145.852 228.578 145.668 229.445C145.486 230.302 145.089 230.959 144.493 231.414C143.842 231.904 143.084 232.055 142.228 231.873C141.361 231.689 140.749 231.246 140.365 230.537C139.994 229.877 139.9 229.115 140.082 228.258ZM140.995 228.444C141.133 227.799 141.391 227.314 141.792 226.957C142.225 226.561 142.748 226.425 143.36 226.555C143.96 226.682 144.392 227.022 144.648 227.565C144.858 228.051 144.898 228.599 144.761 229.245C144.629 229.868 144.365 230.375 143.975 230.734C143.519 231.125 142.987 231.26 142.387 231.132C141.775 231.002 141.353 230.665 141.118 230.127C140.897 229.638 140.861 229.079 140.995 228.444Z" fill-rule="evenodd"  fill="#262933" >
</path>
<path d="M146.598 229.643C146.783 228.775 147.179 228.111 147.789 227.647C148.428 227.155 149.165 227.009 150.032 227.194C150.888 227.376 151.523 227.813 151.907 228.522C152.276 229.194 152.368 229.962 152.183 230.83C152.001 231.687 151.605 232.344 151.008 232.799C150.358 233.289 149.599 233.44 148.743 233.258C147.876 233.074 147.264 232.631 146.881 231.922C146.51 231.261 146.416 230.5 146.598 229.643ZM147.511 229.829C147.648 229.184 147.907 228.699 148.308 228.342C148.741 227.946 149.264 227.81 149.876 227.94C150.476 228.067 150.907 228.406 151.164 228.949C151.374 229.436 151.414 229.984 151.277 230.63C151.145 231.253 150.88 231.76 150.49 232.119C150.035 232.51 149.503 232.645 148.903 232.517C148.291 232.387 147.868 232.05 147.634 231.512C147.413 231.023 147.376 230.463 147.511 229.829Z" fill-rule="evenodd"  fill="#262933" >
</path>
<path d="M153.787 232.783C153.586 232.74 153.417 232.774 153.266 232.881C153.104 232.986 153.004 233.128 152.962 233.328C152.922 233.517 152.955 233.687 153.06 233.849C153.154 234.009 153.296 234.109 153.496 234.151C153.674 234.189 153.855 234.158 154.016 234.053C154.178 233.947 154.278 233.806 154.318 233.617C154.361 233.416 154.327 233.246 154.222 233.084C154.117 232.923 153.964 232.82 153.787 232.783Z"   fill="#262933" >
</path>
<path d="M159.397 229.184C158.541 229.002 157.799 229.158 157.18 229.666C156.605 230.126 156.232 230.79 156.045 231.669C155.858 232.548 155.929 233.308 156.269 233.95C156.624 234.63 157.23 235.061 158.097 235.246C158.808 235.397 159.416 235.328 159.927 235.053C160.452 234.769 160.851 234.261 161.14 233.555L160.251 233.366C159.907 234.328 159.234 234.708 158.255 234.5C157.677 234.377 157.277 234.071 157.062 233.607C156.836 233.14 156.81 232.553 156.959 231.852C157.108 231.151 157.382 230.628 157.781 230.282C158.193 229.928 158.683 229.811 159.238 229.929C159.694 230.026 160.04 230.204 160.282 230.488C160.512 230.77 160.619 231.142 160.602 231.603L161.481 231.79C161.53 231.068 161.374 230.488 161.003 230.048C160.64 229.623 160.108 229.335 159.397 229.184Z"   fill="#262933" >
</path>
<path d="M162.13 232.944C162.314 232.077 162.711 231.412 163.321 230.948C163.96 230.456 164.697 230.311 165.564 230.495C166.42 230.677 167.055 231.114 167.439 231.824C167.807 232.495 167.899 233.264 167.715 234.132C167.533 234.988 167.136 235.646 166.54 236.1C165.89 236.59 165.131 236.741 164.275 236.559C163.408 236.375 162.796 235.932 162.412 235.223C162.041 234.563 161.948 233.801 162.13 232.944ZM163.043 233.131C163.18 232.485 163.438 232 163.839 231.644C164.272 231.247 164.796 231.111 165.407 231.241C166.008 231.368 166.439 231.708 166.695 232.251C166.906 232.737 166.946 233.286 166.809 233.931C166.676 234.554 166.412 235.061 166.022 235.42C165.567 235.812 165.035 235.946 164.434 235.819C163.823 235.689 163.4 235.351 163.166 234.813C162.944 234.324 162.908 233.765 163.043 233.131Z" fill-rule="evenodd"  fill="#262933" >
</path>
<path d="M172.026 231.868C171.381 231.731 170.773 231.916 170.207 232.447L170.37 231.679L169.481 231.49L168.258 237.243L169.147 237.432L169.892 233.927C169.989 233.471 170.205 233.109 170.538 232.855C170.876 232.578 171.243 232.493 171.654 232.58C172.533 232.767 172.871 233.362 172.653 234.386L171.882 238.013L172.772 238.202L173.538 234.597C173.637 234.13 173.838 233.789 174.166 233.556C174.472 233.319 174.823 233.254 175.201 233.334C175.69 233.438 176.02 233.636 176.185 233.95C176.345 234.24 176.375 234.642 176.266 235.154L175.495 238.781L176.385 238.97L177.187 235.198C177.326 234.542 177.248 233.979 176.975 233.513C176.678 233.055 176.24 232.764 175.64 232.636C175.239 232.551 174.887 232.569 174.571 232.688C174.224 232.789 173.898 233.011 173.596 233.342C173.429 232.539 172.905 232.055 172.026 231.868Z"   fill="#262933" >
</path>
<g filter="url(#filter_ADC7575B-1A96-4505-86E2-6387158BF134)">
<rect  x="138.041015625" y="10.35693359375" width="341.77625078323" height="213.857696962977" transform="rotate(22.99999954604251 138.041015625 10.35693359375)" rx="15.1086324769734"    fill="#FFFFFF" >
</rect>
</g>
<rect  x="139.4873046875" y="6.9486083984375" width="341.77625078323" height="215.784342881562" transform="rotate(22.99999954604251 139.4873046875 6.9486083984375)" rx="15.1086320548432"    fill="url(#linear_fill_8FA21761-B229-45CE-8617-3502CFFA893D_0)" >
</rect>
<rect  x="139.4873046875" y="6.9486083984375" width="341.77625078323" height="215.784342881562" transform="rotate(22.99999954604251 139.4873046875 6.9486083984375)" rx="15.1086320548432"    fill="url(#linear_fill_8FA21761-B229-45CE-8617-3502CFFA893D_1)" >
</rect>
<path d="M155.979 34.4823C156.333 34.3393 162.306 32.1512 164.786 38.2902L167.982 46.199C170.464 52.3421 164.66 54.8968 164.287 55.0473L161.218 56.2872C162.671 53.8624 162.027 52.2827 162.027 52.2827L156.914 39.6266C158.481 38.9933 160.086 40.1894 160.086 40.1894L163.281 48.0983C163.306 48.1604 163.728 49.0501 164.5 48.7384C165.205 48.4533 164.942 47.6702 164.872 47.4985L161.662 39.5526C160.961 37.8189 159.13 37.1146 157.238 37.6515L151.906 39.8055C151.267 38.2235 152.387 35.9333 153.744 35.3851L155.979 34.4823ZM150.73 53.1695C151.431 54.9032 153.258 55.5982 155.151 55.0613L160.482 52.9073C161.121 54.4893 160.001 56.7795 158.644 57.3277L156.41 58.2305C156.056 58.3735 150.086 60.5709 147.606 54.4319L144.41 46.523C141.928 40.38 147.728 37.816 148.101 37.6655L151.17 36.4256C149.717 38.8504 150.361 40.4301 150.361 40.4301L155.474 53.0862C153.907 53.7195 152.306 52.5327 152.306 52.5327L149.107 44.6145C149.082 44.5524 148.66 43.6627 147.889 43.9744C147.183 44.2595 147.45 45.0519 147.52 45.2235L150.73 53.1695Z" fill-rule="evenodd"  fill="#FFFFFF" >
</path>
<path d="M172.231 60.2997C172.109 60.0424 172.112 59.7616 172.241 59.4567L175.719 51.2642C176.042 50.502 176.519 49.9973 177.139 49.7597C177.76 49.5221 178.458 49.5696 179.241 49.9021L182.15 51.1369C183.771 51.8249 184.861 52.6615 185.42 53.644C185.979 54.6265 185.985 55.7414 185.454 56.9935C184.959 58.1586 184.235 58.9205 183.266 59.2806C182.298 59.6406 181.232 59.5797 180.068 59.0855L181.497 62.6035C181.61 62.8827 181.617 63.1409 181.511 63.3913C181.4 63.6527 181.189 63.8381 180.877 63.9371C180.559 64.0207 180.289 64.0133 180.06 63.9163C179.745 63.7824 179.516 63.5196 179.375 63.1256L177.381 58.0207L175.715 57.3135L174.414 60.3788C174.284 60.6837 174.076 60.8775 173.796 60.964C173.515 61.0504 173.216 61.0327 172.9 60.8988C172.574 60.7602 172.353 60.557 172.231 60.2997ZM182.507 57.174C182.211 57.4018 181.832 57.5027 181.369 57.4734C180.907 57.4441 180.313 57.2748 179.595 56.9701L176.428 55.6259L177.862 52.2477C177.969 51.9973 178.111 51.8252 178.297 51.7367C178.482 51.6483 178.684 51.6515 178.902 51.7438L181.369 52.791C182.326 53.1974 182.966 53.6592 183.279 54.1775C183.592 54.6958 183.585 55.324 183.271 56.0644C183.054 56.5762 182.802 56.9462 182.507 57.174Z" fill-rule="evenodd"  fill="#FFFFFF" >
</path>
<path d="M192.429 66.8512C191.747 67.3073 190.966 67.5529 190.086 67.5842C189.206 67.6154 188.292 67.4308 187.345 67.0291C186.399 66.6273 185.631 66.0977 185.042 65.443C184.453 64.7883 184.087 64.0557 183.942 63.2487C183.796 62.4417 183.904 61.6236 184.255 60.7961C184.606 59.9686 185.116 59.3323 185.798 58.8763C186.479 58.4203 187.26 58.1746 188.14 58.1434C189.02 58.1121 189.935 58.2967 190.881 58.6985C191.828 59.1003 192.596 59.6299 193.185 60.2846C193.774 60.9393 194.14 61.6718 194.285 62.4788C194.43 63.2858 194.336 64.0986 193.985 64.9261C193.634 65.7536 193.11 66.3952 192.429 66.8512ZM191.829 64.0167C191.501 64.7898 191.001 65.2914 190.332 65.5214C189.663 65.7515 188.904 65.6866 188.067 65.331C187.229 64.9754 186.664 64.4784 186.365 63.8374C186.066 63.1964 186.079 62.4884 186.407 61.7153C186.736 60.9422 187.235 60.4406 187.904 60.2106C188.573 59.9806 189.323 60.0415 190.161 60.3971C190.999 60.7527 191.573 61.2536 191.872 61.8946C192.171 62.5357 192.157 63.2437 191.829 64.0167Z" fill-rule="evenodd"  fill="#FFFFFF" >
</path>
<path d="M202.338 71.0578C201.657 71.5138 200.876 71.7594 199.996 71.7907C199.116 71.822 198.201 71.6373 197.255 71.2356C196.308 70.8338 195.54 70.3042 194.951 69.6495C194.363 68.9948 193.997 68.2622 193.851 67.4552C193.706 66.6482 193.813 65.8301 194.165 65.0026C194.516 64.1751 195.026 63.5389 195.707 63.0828C196.389 62.6268 197.17 62.3811 198.05 62.3499C198.93 62.3186 199.844 62.5032 200.791 62.905C201.737 63.3068 202.506 63.8364 203.094 64.4911C203.683 65.1458 204.049 65.8784 204.194 66.6854C204.34 67.4924 204.246 68.3052 203.894 69.1327C203.543 69.9602 203.02 70.6017 202.338 71.0578ZM201.739 68.2232C201.411 68.9962 200.911 69.4979 200.242 69.7279C199.573 69.9579 198.814 69.8931 197.976 69.5375C197.139 69.1819 196.574 68.6849 196.275 68.0439C195.975 67.4028 195.989 66.6948 196.317 65.9218C196.645 65.1487 197.145 64.6471 197.814 64.4171C198.483 64.187 199.233 64.248 200.071 64.6036C200.908 64.9592 201.482 65.4601 201.781 66.1011C202.081 66.7421 202.067 67.4501 201.739 68.2232Z" fill-rule="evenodd"  fill="#FFFFFF" >
</path>
<path d="M210.952 79.0704C210.286 79.597 209.522 79.9126 208.654 80.0067C207.786 80.1008 206.866 79.9434 205.909 79.537C205.06 79.1768 204.337 78.72 203.731 78.1671C203.125 77.6142 202.711 77.0314 202.493 76.425C202.41 76.197 202.41 75.9819 202.498 75.775C202.613 75.5028 202.853 75.3136 203.206 75.2066C203.425 75.1452 203.628 75.1575 203.813 75.236C204.096 75.3561 204.338 75.6405 204.553 76.104C204.712 76.4544 204.969 76.7829 205.308 77.0875C205.648 77.3922 206.045 77.6392 206.502 77.8332C207.351 78.1934 208.111 78.2185 208.796 77.9053C209.481 77.5921 210.009 76.9771 210.371 76.0642L210.63 75.4028C210.075 75.6813 209.504 75.8217 208.921 75.8184C208.339 75.8152 207.693 75.6664 206.975 75.3616C205.637 74.7936 204.744 73.9782 204.305 72.9246C203.867 71.871 203.929 70.6892 204.483 69.3827C205.038 68.0761 205.852 67.2244 206.931 66.815C208.01 66.4056 209.233 66.4883 210.603 67.0701C211.169 67.3103 211.672 67.6559 212.097 68.1062C212.523 68.5565 212.848 69.0774 213.086 69.6667L213.227 69.3353C213.356 69.0304 213.556 68.8334 213.826 68.7423C214.096 68.6512 214.392 68.6782 214.718 68.8167C215.044 68.9553 215.263 69.1531 215.382 69.4027C215.501 69.6523 215.497 69.926 215.362 70.2418L212.506 76.9707C212.136 77.8417 211.619 78.5438 210.952 79.0704ZM211.874 72.5251C211.545 73.2981 211.049 73.8014 210.386 74.0337C209.722 74.266 208.969 74.2035 208.12 73.8433C207.326 73.5062 206.799 73.0253 206.538 72.4004C206.277 71.7756 206.308 71.0749 206.636 70.3018C206.964 69.5288 207.447 69.0198 208.078 68.7737C208.709 68.5275 209.42 68.5723 210.214 68.9094C211.063 69.2696 211.632 69.7682 211.925 70.4069C212.219 71.0456 212.202 71.752 211.874 72.5251Z" fill-rule="evenodd"  fill="#FFFFFF" >
</path>
<path d="M222.943 79.8034C222.262 80.2595 221.48 80.5051 220.6 80.5364C219.72 80.5676 218.806 80.383 217.859 79.9812C216.913 79.5795 216.145 79.0499 215.556 78.3952C214.967 77.7405 214.601 77.0079 214.456 76.2009C214.311 75.3939 214.418 74.5758 214.769 73.7483C215.12 72.9208 215.63 72.2845 216.312 71.8285C216.993 71.3725 217.775 71.1268 218.655 71.0956C219.534 71.0643 220.449 71.2489 221.396 71.6507C222.342 72.0524 223.11 72.5821 223.699 73.2368C224.288 73.8915 224.654 74.624 224.799 75.431C224.944 76.238 224.85 77.0508 224.499 77.8783C224.148 78.7058 223.624 79.3474 222.943 79.8034ZM222.344 76.9688C222.015 77.7419 221.516 78.2435 220.847 78.4736C220.178 78.7036 219.419 78.6387 218.581 78.2831C217.743 77.9276 217.178 77.4305 216.879 76.7895C216.58 76.1485 216.594 75.4405 216.922 74.6674C217.25 73.8944 217.75 73.3928 218.419 73.1627C219.088 72.9327 219.837 72.9937 220.675 73.3492C221.513 73.7048 222.087 74.2057 222.386 74.8468C222.685 75.4878 222.672 76.1958 222.344 76.9688Z" fill-rule="evenodd"  fill="#FFFFFF" >
</path>
<path d="M232.854 84.0105C232.172 84.4665 231.391 84.7121 230.511 84.7434C229.631 84.7747 228.716 84.59 227.77 84.1883C226.823 83.7865 226.055 83.2569 225.467 82.6022C224.878 81.9475 224.512 81.2149 224.366 80.4079C224.221 79.6009 224.328 78.7828 224.68 77.9553C225.031 77.1278 225.541 76.4916 226.222 76.0355C226.904 75.5795 227.685 75.3338 228.565 75.3026C229.445 75.2713 230.36 75.4559 231.306 75.8577C232.253 76.2595 233.021 76.7891 233.609 77.4438C234.198 78.0985 234.564 78.8311 234.709 79.6381C234.855 80.4451 234.761 81.2579 234.409 82.0854C234.058 82.9129 233.535 83.5544 232.854 84.0105ZM232.254 81.176C231.926 81.949 231.426 82.4507 230.757 82.6807C230.088 82.9107 229.329 82.8459 228.491 82.4903C227.654 82.1347 227.089 81.6377 226.79 80.9966C226.49 80.3556 226.504 79.6476 226.832 78.8746C227.16 78.1015 227.66 77.5999 228.329 77.3699C228.998 77.1398 229.748 77.2008 230.586 77.5564C231.423 77.912 231.997 78.4129 232.297 79.0539C232.596 79.6949 232.582 80.4029 232.254 81.176Z" fill-rule="evenodd"  fill="#FFFFFF" >
</path>
<path d="M196.153 128.074C195.017 130.75 193.187 133.026 190.966 134.715C190.503 135.045 190.453 135.658 190.794 136.119C191.136 136.581 191.764 136.634 192.226 136.303C194.743 134.424 196.772 131.915 198.059 128.883C199.346 125.85 199.742 122.648 199.345 119.532C199.261 118.97 198.783 118.565 198.214 118.639C197.683 118.624 197.243 119.167 197.327 119.729C197.655 122.5 197.327 125.309 196.153 128.074ZM192.231 126.413C191.361 128.464 189.984 130.194 188.262 131.464C187.8 131.794 187.749 132.408 188.09 132.868C188.432 133.33 189.06 133.383 189.522 133.053C191.538 131.593 193.124 129.635 194.146 127.226C195.168 124.818 195.476 122.317 195.125 119.853C195.08 119.201 194.606 118.784 194.037 118.858C193.469 118.932 193.024 119.488 193.108 120.05C193.39 122.17 193.14 124.272 192.231 126.413ZM188.352 124.66C187.746 126.087 186.731 127.231 185.601 128.121C185.139 128.451 185.086 129.063 185.337 129.486C185.678 129.947 186.267 130.092 186.729 129.762C188.246 128.722 189.508 127.257 190.174 125.434C190.932 123.65 191.109 121.725 190.895 119.949C190.865 119.516 190.297 119.065 189.728 119.139C189.159 119.214 188.847 119.716 188.93 120.278C189.167 121.746 188.958 123.233 188.352 124.66ZM185.026 121.882C184.966 122.277 184.86 122.76 184.709 123.116C184.519 123.562 184.284 123.884 184.041 124.202C183.799 124.52 183.462 124.791 183.075 124.943C182.613 125.273 182.476 125.853 182.689 126.365C183.031 126.825 183.613 126.962 184.129 126.759C184.683 126.468 185.18 126.056 185.589 125.597C185.999 125.14 186.358 124.554 186.623 123.929C186.888 123.305 187.023 122.728 187.105 122.026C187.151 121.413 187.068 120.849 186.931 120.159C186.718 119.648 186.212 119.331 185.643 119.406C185.127 119.609 184.808 120.101 184.892 120.663C185.051 121.046 185.087 121.486 185.026 121.882Z" fill-rule="evenodd"  fill="#FFFFFF" >
</path>
<rect  x="135.8974609375" y="83.564697265625" width="49.1835370146261" height="36.6062724531221" transform="rotate(22.99999954604251 135.8974609375 83.564697265625)" rx="7.78692714905596"    fill="#F2F2F2" >
</rect>
<path fill-rule="evenodd"  fill="rgba(85, 85, 85, 1)"  d="M174.003 99.7396L143.065 86.6073C139.107 84.9269 134.535 86.7739 132.855 90.7326L124.637 110.093C122.956 114.052 124.803 118.623 128.762 120.304L159.7 133.436C163.659 135.116 168.23 133.269 169.911 129.311L178.129 109.95C179.809 105.991 177.962 101.42 174.003 99.7396ZM133.436 90.9793C134.98 87.3416 139.181 85.6443 142.819 87.1885L173.757 100.321C177.394 101.865 179.091 106.066 177.547 109.703L169.329 129.064C167.785 132.702 163.584 134.399 159.947 132.855L129.009 119.722C125.371 118.178 123.674 113.977 125.218 110.34L133.436 90.9793Z">
</path>
<path d="M161.842 94.5777L161.894 94.6561C162.919 96.2014 163.523 97.4695 163.704 98.4736C163.88 99.4519 163.942 100.709 163.89 102.249C163.884 102.426 163.737 102.567 163.562 102.563C163.387 102.56 163.25 102.413 163.256 102.236C163.307 100.738 163.248 99.5247 163.08 98.5974C162.923 97.726 162.385 96.5783 161.463 95.1662L161.418 95.0975L155.34 92.5173C153.781 92.6972 152.346 93.3143 151.027 94.3731L150.957 94.4292C150.41 94.8761 149.974 95.2786 149.578 95.7018C149.197 96.1079 148.842 96.5434 148.412 97.1254C148.245 97.3501 147.566 98.3101 146.886 99.2651L146.817 99.3622C146.392 99.9603 145.973 100.547 145.688 100.939L145.666 100.969L145.662 100.979C145.314 101.82 145.262 102.618 145.359 104.083L145.364 104.159C145.42 104.979 145.441 105.324 145.438 105.639L145.437 105.682L145.436 105.746C145.433 105.825 145.43 105.905 145.425 105.993C145.396 106.512 145.305 106.96 145.132 107.368C144.951 107.793 144.678 108.151 144.286 108.514C144.126 108.662 143.951 108.807 143.716 108.99C143.647 109.044 143.231 109.364 143.109 109.46C142.029 110.31 141.382 111.061 140.871 112.265C140.12 114.034 139.583 116.776 139.7 119.546C139.744 120.598 140.36 122.421 141.55 124.987L141.576 125.043L147.62 127.608L147.624 127.608C149.602 127.247 151.267 126.424 152.628 125.136L152.692 125.074C155.234 122.623 156.252 121.326 157.203 119.087C157.657 118.017 157.751 117.129 157.686 115.668C157.684 115.632 157.679 115.517 157.673 115.397L157.67 115.336C157.666 115.236 157.661 115.142 157.659 115.096C157.65 114.875 157.645 114.698 157.644 114.527C157.64 113.831 157.709 113.282 157.896 112.75L157.903 112.731L157.912 112.712C158.212 112.113 158.835 111.497 159.912 110.629C160.039 110.528 160.171 110.422 160.331 110.297C160.424 110.223 160.76 109.96 160.83 109.905C160.99 109.779 161.119 109.676 161.237 109.582L161.241 109.576C161.763 108.428 162.77 107.879 163.542 108.168L163.568 108.179L176.155 113.521C176.316 113.589 176.389 113.777 176.32 113.941C176.251 114.105 176.064 114.182 175.903 114.114L164.814 109.407C164.763 109.385 164.712 109.364 164.661 109.342L163.322 108.774C162.883 108.597 162.176 108.987 161.787 109.904L161.755 109.979L161.692 110.03C161.554 110.142 161.406 110.259 161.214 110.411C161.143 110.466 160.808 110.729 160.715 110.802C160.558 110.926 160.426 111.03 160.302 111.13C159.299 111.938 158.72 112.512 158.476 112.997L158.486 112.978L158.475 113.011C158.335 113.429 158.279 113.875 158.277 114.443L158.278 114.515C158.279 114.676 158.283 114.846 158.293 115.059C158.297 115.168 158.316 115.557 158.319 115.631C158.388 117.18 158.284 118.155 157.784 119.334C156.792 121.671 155.725 123.03 153.126 125.537C151.637 126.972 149.802 127.879 147.628 128.257L147.538 128.273L141.104 125.542L141.053 125.433C139.779 122.707 139.116 120.767 139.066 119.582C138.945 116.712 139.501 113.874 140.289 112.018C140.85 110.698 141.566 109.867 142.724 108.955C142.775 108.915 142.872 108.84 142.974 108.761L143.026 108.721C143.164 108.615 143.299 108.511 143.334 108.483C143.556 108.31 143.718 108.175 143.862 108.042C144.192 107.738 144.41 107.451 144.55 107.121C144.691 106.79 144.767 106.414 144.792 105.965C144.797 105.883 144.8 105.808 144.802 105.734L144.803 105.693C144.803 105.673 144.804 105.652 144.804 105.632L144.804 105.59C144.805 105.305 144.784 104.966 144.732 104.213C144.62 102.577 144.676 101.683 145.098 100.688L145.113 100.654L145.135 100.623C145.418 100.235 145.858 99.6193 146.307 98.9888L146.376 98.8917C146.387 98.8755 146.399 98.8593 146.41 98.8431L146.479 98.7461L146.548 98.6492C147.167 97.7787 147.751 96.9544 147.906 96.7446C148.351 96.1438 148.721 95.6895 149.121 95.263C149.538 94.8177 149.995 94.3958 150.564 93.9314C152.02 92.7417 153.622 92.0529 155.363 91.8698L155.443 91.8613L161.842 94.5777Z"   fill="#555555" >
</path>
<path    stroke="rgba(85, 85, 85, 1)" stroke-width="0.631372471545077"    d="M131.131 94.7943L145.328 100.821">
</path>
<path    stroke="rgba(85, 85, 85, 1)" stroke-width="0.631372471545077"    d="M157.489 119.219L171.688 125.246">
</path>
<path    stroke="rgba(85, 85, 85, 1)" stroke-width="0.631372471545077"    d="M126.37 106.01L140.567 112.036">
</path>
<ellipse cx="157.74946684580584" cy="96.43972827898172" transform="rotate(22.99999954604251 156.01171875 94.66845703125)" rx="1.73774809580585" ry="1.77127124773172"   fill="#FFFFFF" fill-opacity="0">
</ellipse>
<path d="M157.737 95.051C158.781 95.4942 159.261 96.7161 158.81 97.7803C158.358 98.8445 157.145 99.348 156.101 98.9048C155.057 98.4616 154.577 97.2397 155.029 96.1754C155.48 95.1112 156.693 94.6078 157.737 95.051Z"   fill="#555555" >
</path>
<path d="M157.486 95.6439C156.763 95.3371 155.923 95.6856 155.611 96.4224C155.298 97.1591 155.63 98.0051 156.353 98.312C157.076 98.6188 157.915 98.2702 158.228 97.5335C158.541 96.7967 158.208 95.9507 157.486 95.6439Z"   fill="#555555" >
</path>
<g opacity="0.45">
<path d="M294.8 139.402C296.321 138.815 321.828 129.418 332.321 155.391L345.845 188.862C356.345 214.852 331.551 225.759 329.97 226.424L316.859 231.721C323.089 221.429 320.382 214.734 320.382 214.734L298.741 161.171C305.435 158.467 312.242 163.514 312.242 163.514L325.769 196.995C325.876 197.258 327.656 201.032 330.95 199.701C333.964 198.483 332.856 195.127 332.562 194.401L318.979 160.781C316.016 153.446 308.214 150.52 300.135 152.821L277.382 162.014C274.678 155.32 279.474 145.594 285.268 143.253L294.8 139.402ZM272.094 218.659C275.058 225.994 282.85 228.924 290.929 226.623L313.691 217.427C316.396 224.12 311.599 233.846 305.805 236.187L296.274 240.038C294.753 240.626 269.246 250.023 258.752 224.05L245.229 190.578C234.728 164.588 259.522 153.682 261.104 153.017L274.214 147.72C267.984 158.012 270.691 164.706 270.691 164.706L292.332 218.27C285.638 220.974 278.831 215.927 278.831 215.927L265.304 182.446C265.198 182.183 263.417 178.409 260.123 179.74C257.109 180.958 258.218 184.313 258.511 185.04L272.094 218.659Z" fill-rule="evenodd"  fill="#FFFFFF" >
</path>
</g>
<defs>
<linearGradient id="linear_fill_97B9327F-D77F-45BE-8204-272B59BC96FE_0" x1="87.6090719793632" y1="21.177022630901227" x2="169.9154119023399" y2="226.1022855611875" gradientUnits="userSpaceOnUse">
<stop offset="0" stop-color="#111111"  />
<stop offset="0.28249239654449" stop-color="#111111"  />
<stop offset="0.603219935269732" stop-color="#3D3D3D"  />
<stop offset="0.895330800544547" stop-color="#111111"  />
<stop offset="1" stop-color="#111111"  />
</linearGradient>
<linearGradient id="linear_fill_97B9327F-D77F-45BE-8204-272B59BC96FE_1" x1="45.41796875" y1="14.929415383373975" x2="387.19421953323" y2="226.1022855611875" gradientUnits="userSpaceOnUse">
<stop offset="0" stop-color="#FF8F3D"  />
<stop offset="0.523733639407468" stop-color="#F3E2AC"  />
<stop offset="1" stop-color="#4FF3DF"  />
</linearGradient>
<linearGradient id="linear_fill_97B9327F-D77F-45BE-8204-272B59BC96FE_2" x1="51.46609025803763" y1="224.37795304202226" x2="156.27062465630243" y2="89.64750207291047" gradientUnits="userSpaceOnUse">
<stop offset="0" stop-color="#FC5810"  />
<stop offset="1" stop-color="#FFFFFF" stop-opacity="0" />
</linearGradient>
<filter id="filter_ADC7575B-1A96-4505-86E2-6387158BF134" x="43.123046875" y="0" width="420.8818359375" height="353.113525390625" filterUnits="userSpaceOnUse" color-interpolation-filters="sRGB">
<feFlood flood-opacity="0" result="feFloodId_ADC7575B-1A96-4505-86E2-6387158BF134"/>
<feColorMatrix in="SourceAlpha" type="matrix" values="0 0 0 0 0 0 0 0 0 0 0 0 0 0 0 0 0 0 127 0" result="hardAlpha_ADC7575B-1A96-4505-86E2-6387158BF134"/>
<feOffset dx="0" dy="1"/>
<feGaussianBlur stdDeviation="7"/>
<feComposite in2="hardAlpha_ADC7575B-1A96-4505-86E2-6387158BF134" operator="out"/>
<feColorMatrix type="matrix" values="0 0 0 0 0 0 0 0 0 0 0 0 0 0 0 0 0 0 0.34 0"/>
<feBlend mode="normal" in2="feFloodId_ADC7575B-1A96-4505-86E2-6387158BF134" result="dropShadow_1_ADC7575B-1A96-4505-86E2-6387158BF134"/>
<feBlend mode="normal" in="SourceGraphic" in2="dropShadow_1_ADC7575B-1A96-4505-86E2-6387158BF134" result="shape_ADC7575B-1A96-4505-86E2-6387158BF134"/>
</filter>
<linearGradient id="linear_fill_8FA21761-B229-45CE-8617-3502CFFA893D_0" x1="148.61981931818715" y1="14.953275433787518" x2="481.26355547073" y2="222.73295128000166" gradientUnits="userSpaceOnUse">
<stop offset="0" stop-color="#FF8F3D"  />
<stop offset="0.523733639407468" stop-color="#F3E2AC"  />
<stop offset="1" stop-color="#4FF3DF"  />
</linearGradient>
<linearGradient id="linear_fill_8FA21761-B229-45CE-8617-3502CFFA893D_1" x1="145.53542619553764" y1="221.0143021244439" x2="250.33996059380243" y2="86.72791987968583" gradientUnits="userSpaceOnUse">
<stop offset="0" stop-color="#FC5810"  />
<stop offset="1" stop-color="#FFFFFF" stop-opacity="0" />
</linearGradient>
</defs>
</svg>
