<svg xmlns="http://www.w3.org/2000/svg" viewBox="0 0 96 96">
  <circle cx="48" cy="49" r="40" fill="#eaf5ff"/>
  <path d="M21 42c-2-12 2-25 9-30 6 6 10 12 12 19h12c2-7 6-13 12-19 7 5 11 18 9 30 6 8 8 20 4 30-5 12-17 18-31 18S22 84 17 72c-4-10-2-22 4-30Z" fill="#5aa6f7"/>
  <path d="M29 18c4 4 7 9 8 14-5 1-10 3-14 7-1-8 1-16 6-21ZM67 18c-4 4-7 9-8 14 5 1 10 3 14 7 1-8-1-16-6-21Z" fill="#2f78d4"/>
  <ellipse cx="35" cy="54" rx="7" ry="9" fill="#0d2342"/>
  <ellipse cx="61" cy="54" rx="7" ry="9" fill="#0d2342"/>
  <circle cx="37" cy="50" r="2.4" fill="#fff"/>
  <circle cx="63" cy="50" r="2.4" fill="#fff"/>
  <path d="M48 60c3 0 5 1.5 5 3.3 0 2-2.2 3.7-5 3.7s-5-1.7-5-3.7c0-1.8 2-3.3 5-3.3Z" fill="#16436e"/>
  <path d="M39 71c3.2 4 14.8 4 18 0" fill="none" stroke="#16436e" stroke-width="3.2" stroke-linecap="round"/>
</svg>
